#!OML:ASF H:\Not Pregnant\Project 1\Capture day 1\Session 1\non-pregnant.ASF
:FULLY-SPECIFIED
:DEGREES
364
root 5.24702 15.2992 30.8838 11.2658 4.46457 0.35317
lowerback -5.22692 -1.45715 0.586037
upperback -7.37207 -1.98769 -1.03217
thorax -4.7627 -1.05346 -1.41536
lowerneck 23.0677 -13.3983 -28.9987
upperneck -12.7308 -23.4704 39.8689
head 1.84294 -14.2799 18.8518
rclavicle 6.55989e-015 1.51076e-014
rhumerus -71.716 7.47332 -93.6975
rradius 82.6651
rwrist -12.581
rhand -14.9247 -15.8489
rfingers 7.12502
rthumb 11.2374 -45.5279
lclavicle 6.55989e-015 1.51076e-014
lhumerus -43.5527 -25.71 93.1825
lradius 94.3921
lwrist 40.924
lhand -12.3298 -14.0805
lfingers 7.12502
lthumb 13.7391 15.4459
rfemur -42.8822 -3.27243 24.936
rtibia 26.829
rfoot -1.53136 9.46487
rtoes -23.5491
lfemur -22.487 10.7531 -22.9469
ltibia 70.0971
lfoot -5.73621 -4.836
ltoes -25.6953
365
root 5.24701 15.2476 31.0799 10.8772 4.49022 0.40559
lowerback -4.72051 -1.3033 0.346857
upperback -7.39028 -1.78145 -1.09406
thorax -5.05485 -0.94023 -1.33144
lowerneck 23.5282 -13.4354 -29.0654
upperneck -13.3538 -23.531 40.1691
head 1.69426 -14.3829 19.0762
rclavicle 5.31749e-015 -7.95139e-015
rhumerus -71.6873 7.85178 -94.1273
rradius 82.5204
rwrist -12.609
rhand -14.6296 -16.1085
rfingers 7.12502
rthumb 11.5219 -45.7719
lclavicle 5.31749e-015 -7.95139e-015
lhumerus -43.4315 -25.8938 93.3013
lradius 94.5771
lwrist 40.4731
lhand -11.911 -13.9379
lfingers 7.12502
lthumb 14.1427 15.5607
rfemur -43.407 -2.61509 24.6887
rtibia 29.596
rfoot -0.342643 9.50211
rtoes -20.3502
lfemur -22.9184 10.9942 -22.6098
ltibia 72.1329
lfoot -6.26027 -4.47108
ltoes -24.9022
366
root 5.24565 15.1856 31.2653 10.2624 4.38917 0.404333
lowerback -3.86743 -1.11797 0.0953896
upperback -7.3538 -1.53714 -1.12663
thorax -5.48554 -0.805944 -1.20705
lowerneck 23.9312 -13.4897 -29.1188
upperneck -13.9385 -23.6076 40.4827
head 1.57371 -14.4912 19.2926
rclavicle -8.44835e-015 8.34896e-015
rhumerus -71.4757 8.3776 -94.6445
rradius 82.3025
rwrist -12.661
rhand -14.3835 -16.4402
rfingers 7.12502
rthumb 11.7593 -46.0901
lclavicle -8.44835e-015 8.34896e-015
lhumerus -43.2848 -25.8652 93.4775
lradius 94.688
lwrist 39.8465
lhand -11.4962 -13.7724
lfingers 7.12502
lthumb 14.5425 15.6978
rfemur -43.6948 -1.57527 24.3502
rtibia 32.4031
rfoot -0.0840717 9.10662
rtoes -17.8537
lfemur -23.2137 11.2463 -22.1763
ltibia 74.1778
lfoot -6.86906 -4.62834
ltoes -24.492
367
root 5.24413 15.1121 31.4404 9.39651 4.16717 0.283959
lowerback -2.68087 -0.889779 -0.0695749
upperback -7.2412 -1.24064 -1.12974
thorax -6.03033 -0.648845 -1.10293
lowerneck 24.2703 -13.5764 -29.1333
upperneck -14.4797 -23.7121 40.8102
head 1.48463 -14.6115 19.4911
rclavicle -4.02539e-015 1.31198e-014
rhumerus -71.0391 9.06529 -95.2622
rradius 81.9931
rwrist -12.7991
rhand -14.1826 -16.9215
rfingers 7.12502
rthumb 11.953 -46.5602
lclavicle -4.02539e-015 1.31198e-014
lhumerus -43.1239 -25.6478 93.6817
lradius 94.7253
lwrist 39.0352
lhand -11.1109 -13.5711
lfingers 7.12502
lthumb 14.9137 15.872
rfemur -43.6383 -0.327496 24.1032
rtibia 35.0629
rfoot -0.496291 8.4288
rtoes -16.1894
lfemur -23.3371 11.544 -21.565
ltibia 76.2466
lfoot -7.60241 -5.20223
ltoes -24.4607
368
root 5.24333 15.0295 31.6056 8.29665 3.83802 -0.098401
lowerback -1.21808 -0.613171 0.0212251
upperback -7.04351 -0.875292 -1.0788
thorax -6.65144 -0.47054 -1.09605
lowerneck 24.5549 -13.7052 -29.0734
upperneck -15.0016 -23.8416 41.16
head 1.41441 -14.746 19.672
rclavicle 9.44227e-016 -1.19271e-014
rhumerus -70.3343 9.91923 -95.9781
rradius 81.5822
rwrist -13.0746
rhand -14.018 -17.6387
rfingers 7.12502
rthumb 12.1117 -47.2681
lclavicle 9.44227e-016 -1.19271e-014
lhumerus -42.9689 -25.2736 93.8729
lradius 94.6894
lwrist 38.0608
lhand -10.7762 -13.3645
lfingers 7.12502
lthumb 15.236 16.0545
rfemur -43.1831 0.959726 24.2214
rtibia 37.4355
rfoot -1.33315 7.61397
rtoes -15.8349
lfemur -23.3038 11.9363 -20.6012
ltibia 78.3417
lfoot -8.46408 -6.03206
ltoes -24.7745
369
root 5.24567 14.9453 31.7623 7.12156 3.43269 -0.961711
lowerback 0.32271 -0.303408 0.634408
upperback -6.80011 -0.432056 -0.923559
thorax -7.27676 -0.283222 -1.29213
lowerneck 24.8086 -13.8699 -28.9199
upperneck -15.5355 -23.9777 41.5447
head 1.34341 -14.8904 19.8497
rclavicle 1.50082e-014 -3.57812e-015
rhumerus -69.3411 10.9588 -96.785
rradius 81.0604
rwrist -13.5124
rhand -13.914 -18.6204
rfingers 7.12502
rthumb 12.2121 -48.2438
lclavicle 1.50082e-014 -3.57812e-015
lhumerus -42.8478 -24.757 94.0068
lradius 94.5821
lwrist 36.9417
lhand -10.5133 -13.1547
lfingers 7.12502
lthumb 15.4893 16.2448
rfemur -42.4509 2.1493 25.0031
rtibia 39.4194
rfoot -2.32068 6.8555
rtoes -16.1643
lfemur -23.285 12.4532 -19.0542
ltibia 80.4534
lfoot -9.42797 -7.00147
ltoes -25.5033
370
root 5.25249 14.8657 31.9122 6.04684 2.94859 -2.2
lowerback 1.76767 0.00928928 1.67343
upperback -6.55369 0.068033 -0.691315
thorax -7.84207 -0.0952894 -1.66865
lowerneck 25.0302 -14.0664 -28.6692
upperneck -16.0943 -24.1084 41.9681
head 1.26393 -15.04 20.03
rclavicle -2.14687e-014 -1.43125e-014
rhumerus -68.047 12.1894 -97.6527
rradius 80.4215
rwrist -14.0896
rhand -13.8465 -19.9095
rfingers 7.12502
rthumb 12.2771 -49.5291
lclavicle -2.14687e-014 -1.43125e-014
lhumerus -42.7853 -24.1014 94.0515
lradius 94.3941
lwrist 35.6922
lhand -10.3512 -12.9883
lfingers 7.12502
lthumb 15.6454 16.3991
rfemur -41.6182 3.13722 26.3341
rtibia 40.9972
rfoot -3.25333 6.26451
rtoes -16.59
lfemur -23.4239 13.0627 -17.0832
ltibia 82.5225
lfoot -10.4329 -7.95859
ltoes -26.6036
371
root 5.2639 14.7956 32.0583 5.23273 2.41147 -3.64594
lowerback 2.94093 0.293903 2.95162
upperback -6.35156 0.579541 -0.412579
thorax -8.28813 0.0807806 -2.14689
lowerneck 25.2306 -14.2735 -28.3578
upperneck -16.6598 -24.2225 42.4184
head 1.17728 -15.1878 20.2192
rclavicle 1.28713e-014 9.54166e-015
rhumerus -66.4829 13.6172 -98.536
rradius 79.6593
rwrist -14.7487
rhand -13.78 -21.433
rfingers 7.12502
rthumb 12.3412 -51.0487
lclavicle 1.28713e-014 9.54166e-015
lhumerus -42.8189 -23.2748 94.0042
lradius 94.1122
lwrist 34.3234
lhand -10.3035 -12.8895
lfingers 7.12502
lthumb 15.6914 16.4943
rfemur -40.852 3.8572 28.0004
rtibia 42.2174
rfoot -4.1271 5.94749
rtoes -16.9519
lfemur -23.8552 13.6972 -14.9314
ltibia 84.476
lfoot -11.4193 -8.78455
ltoes -27.9943
372
root 5.27837 14.737 32.2018 4.74411 1.8933 -5.0384
lowerback 3.77993 0.521601 4.17279
upperback -6.21795 1.03015 -0.141219
thorax -8.60531 0.227709 -2.60267
lowerneck 25.4144 -14.4729 -28.0285
upperneck -17.2068 -24.3164 42.879
head 1.09089 -15.3287 20.4177
rclavicle -5.56597e-015 -4.37326e-015
rhumerus -64.6929 15.2222 -99.3922
rradius 78.772
rwrist -15.3845
rhand -13.6762 -23.0916
rfingers 7.12502
rthumb 12.4413 -52.7013
lclavicle -5.56597e-015 -4.37326e-015
lhumerus -42.9654 -22.2385 93.8719
lradius 93.7259
lwrist 32.8562
lhand -10.4045 -12.8535
lfingers 7.12502
lthumb 15.5941 16.5379
rfemur -40.2758 4.29487 29.6621
rtibia 43.1952
rfoot -4.96713 5.87942
rtoes -17.1124
lfemur -24.65 14.2322 -12.9482
ltibia 86.2441
lfoot -12.3029 -9.40699
ltoes -29.4952
373
root 5.29474 14.6921 32.3468 4.49621 1.42773 -6.11479
lowerback 4.30466 0.692261 5.0484
upperback -6.12757 1.37466 0.0658425
thorax -8.78536 0.343177 -2.92167
lowerneck 25.626 -14.6399 -27.7308
upperneck -17.7295 -24.3846 43.3382
head 1.00171 -15.4603 20.6385
rclavicle -5.26779e-015 -2.38542e-015
rhumerus -62.7327 16.9295 -100.157
rradius 77.7723
rwrist -15.8587
rhand -13.4732 -24.6927
rfingers 7.12502
rthumb 12.637 -54.2904
lclavicle -5.26779e-015 -2.38542e-015
lhumerus -43.2229 -20.9763 93.6832
lradius 93.2068
lwrist 31.2908
lhand -10.6803 -12.8867
lfingers 7.12502
lthumb 15.3284 16.5252
rfemur -39.8572 4.47345 30.9904
rtibia 44.0425
rfoot -5.81681 5.96823
rtoes -17.1484
lfemur -25.6724 14.5538 -11.4645
ltibia 87.7342
lfoot -13.0471 -9.76405
ltoes -30.8833
